<svg xmlns="http://www.w3.org/2000/svg" width="1200" height="630" viewBox="0 0 1200 630">
  <defs>
    <linearGradient id="bg" x1="0%" y1="0%" x2="100%" y2="100%">
      <stop offset="0%" style="stop-color:#1e293b"/>
      <stop offset="100%" style="stop-color:#334155"/>
    </linearGradient>
  </defs>
  <rect width="1200" height="630" fill="url(#bg)"/>
  <rect x="50" y="50" width="300" height="200" rx="8" fill="#475569"/>
  <rect x="70" y="70" width="260" height="20" rx="4" fill="#64748b"/>
  <rect x="70" y="100" width="200" height="15" rx="3" fill="#64748b"/>
  <rect x="70" y="125" width="230" height="15" rx="3" fill="#64748b"/>
  <rect x="70" y="150" width="180" height="15" rx="3" fill="#64748b"/>
  <rect x="70" y="190" width="100" height="40" rx="6" fill="#f97316"/>
  <circle cx="800" cy="200" r="80" fill="#475569"/>
  <rect x="750" y="160" width="100" height="80" rx="4" fill="#64748b"/>
  <circle cx="900" cy="350" r="60" fill="#475569"/>
  <rect x="400" y="400" width="400" height="150" rx="8" fill="#475569"/>
  <rect x="420" y="420" width="360" height="20" rx="4" fill="#64748b"/>
  <rect x="420" y="450" width="300" height="15" rx="3" fill="#64748b"/>
  <rect x="420" y="475" width="340" height="15" rx="3" fill="#64748b"/>
  <rect x="420" y="500" width="280" height="15" rx="3" fill="#64748b"/>
  <text x="600" y="600" font-family="system-ui, sans-serif" font-size="16" fill="#94a3b8" text-anchor="middle">Contractor Pricing Guide 2025 - Hero Image</text>
</svg>
