<svg xmlns="http://www.w3.org/2000/svg" width="1200" height="630" viewBox="0 0 1200 630">
  <defs>
    <linearGradient id="bg" x1="0%" y1="0%" x2="100%" y2="100%">
      <stop offset="0%" style="stop-color:#1e293b"/>
      <stop offset="100%" style="stop-color:#0f172a"/>
    </linearGradient>
  </defs>
  <rect width="1200" height="630" fill="url(#bg)"/>
  
  <!-- Decorative elements -->
  <circle cx="1100" cy="100" r="200" fill="rgba(249,115,22,0.1)"/>
  <circle cx="100" cy="530" r="150" fill="rgba(59,130,246,0.1)"/>
  
  <!-- Main content -->
  <text x="100" y="180" font-family="system-ui, sans-serif" font-size="56" font-weight="bold" fill="white">Contractor Pricing</text>
  <text x="100" y="250" font-family="system-ui, sans-serif" font-size="56" font-weight="bold" fill="white">Guide 2025</text>
  
  <rect x="100" y="280" width="200" height="6" fill="#f97316" rx="3"/>
  
  <text x="100" y="340" font-family="system-ui, sans-serif" font-size="24" fill="#94a3b8">How to Price Your Services Profitably</text>
  
  <!-- Key topics -->
  <rect x="100" y="400" width="180" height="40" rx="20" fill="rgba(249,115,22,0.2)"/>
  <text x="190" y="427" font-family="system-ui, sans-serif" font-size="16" fill="#fdba74" text-anchor="middle">Markup vs Margin</text>
  
  <rect x="300" y="400" width="160" height="40" rx="20" fill="rgba(34,197,94,0.2)"/>
  <text x="380" y="427" font-family="system-ui, sans-serif" font-size="16" fill="#86efac" text-anchor="middle">Break-Even</text>
  
  <rect x="480" y="400" width="200" height="40" rx="20" fill="rgba(59,130,246,0.2)"/>
  <text x="580" y="427" font-family="system-ui, sans-serif" font-size="16" fill="#93c5fd" text-anchor="middle">Trade Benchmarks</text>
  
  <!-- Visual element -->
  <rect x="800" y="150" width="300" height="300" rx="16" fill="rgba(255,255,255,0.05)"/>
  
  <!-- Cost stack mini visualization -->
  <rect x="850" y="200" width="200" height="40" fill="#3b82f6" rx="4"/>
  <text x="950" y="227" font-family="system-ui, sans-serif" font-size="14" fill="white" text-anchor="middle">Materials</text>
  
  <rect x="850" y="245" width="200" height="50" fill="#8b5cf6" rx="4"/>
  <text x="950" y="277" font-family="system-ui, sans-serif" font-size="14" fill="white" text-anchor="middle">Labor</text>
  
  <rect x="850" y="300" width="200" height="40" fill="#f97316" rx="4"/>
  <text x="950" y="327" font-family="system-ui, sans-serif" font-size="14" fill="white" text-anchor="middle">Overhead</text>
  
  <rect x="850" y="345" width="200" height="30" fill="#22c55e" rx="4"/>
  <text x="950" y="367" font-family="system-ui, sans-serif" font-size="14" fill="white" text-anchor="middle">Profit</text>
  
  <text x="950" y="420" font-family="system-ui, sans-serif" font-size="16" font-weight="bold" fill="white" text-anchor="middle">= Your Price</text>
  
  <!-- Branding -->
  <rect x="100" y="530" width="120" height="40" rx="8" fill="#f97316"/>
  <text x="160" y="557" font-family="system-ui, sans-serif" font-size="18" font-weight="bold" fill="white" text-anchor="middle">ScopeGen</text>
  
  <text x="240" y="557" font-family="system-ui, sans-serif" font-size="16" fill="#64748b" text-anchor="start">scopegenerator.com</text>
</svg>
