<svg xmlns="http://www.w3.org/2000/svg" width="1200" height="750" viewBox="0 0 1200 750">
  <defs>
    <linearGradient id="bg" x1="0%" y1="0%" x2="100%" y2="100%">
      <stop offset="0%" style="stop-color:#1e293b"/>
      <stop offset="100%" style="stop-color:#334155"/>
    </linearGradient>
    <linearGradient id="shine" x1="0%" y1="0%" x2="100%" y2="100%">
      <stop offset="0%" style="stop-color:rgba(255,255,255,0.1)"/>
      <stop offset="100%" style="stop-color:rgba(255,255,255,0)"/>
    </linearGradient>
  </defs>
  <rect width="1200" height="750" fill="url(#bg)"/>
  
  <!-- Premium Work Visual -->
  <rect x="100" y="80" width="500" height="400" rx="16" fill="#475569"/>
  <rect x="120" y="100" width="460" height="300" rx="8" fill="#64748b"/>
  
  <!-- Bathroom representation -->
  <rect x="150" y="130" width="200" height="240" rx="4" fill="#94a3b8"/>
  <rect x="170" y="150" width="160" height="100" rx="4" fill="#cbd5e1"/>
  <rect x="180" y="160" width="140" height="80" rx="2" fill="#e2e8f0"/>
  
  <rect x="380" y="200" width="180" height="150" rx="4" fill="#94a3b8"/>
  <ellipse cx="470" cy="310" rx="60" ry="25" fill="#e2e8f0"/>
  
  <rect x="150" y="380" width="400" height="10" fill="#78716c"/>
  
  <!-- Quality indicators -->
  <circle cx="540" cy="150" r="30" fill="#22c55e"/>
  <text x="540" y="157" font-family="system-ui, sans-serif" font-size="24" fill="white" text-anchor="middle"></text>
  
  <text x="350" y="450" font-family="system-ui, sans-serif" font-size="14" fill="#94a3b8" text-anchor="middle">Premium Finish " Clean Install " Attention to Detail</text>
  
  <!-- Value-based pricing benefits -->
  <rect x="660" y="80" width="480" height="580" rx="16" fill="rgba(255,255,255,0.05)"/>
  
  <text x="900" y="130" font-family="system-ui, sans-serif" font-size="28" font-weight="bold" fill="white" text-anchor="middle">Value-Based Pricing</text>
  <text x="900" y="160" font-family="system-ui, sans-serif" font-size="16" fill="#94a3b8" text-anchor="middle">Charge more when you reduce risk for the homeowner</text>
  
  <!-- Benefit items -->
  <rect x="700" y="200" width="400" height="70" rx="8" fill="rgba(249,115,22,0.2)"/>
  <circle cx="740" cy="235" r="20" fill="#f97316"/>
  <text x="740" y="242" font-family="system-ui, sans-serif" font-size="18" fill="white" text-anchor="middle">¡</text>
  <text x="780" y="228" font-family="system-ui, sans-serif" font-size="16" font-weight="bold" fill="white" text-anchor="start">Fast Turnaround</text>
  <text x="780" y="250" font-family="system-ui, sans-serif" font-size="14" fill="#94a3b8" text-anchor="start">Speed has value  less disruption to their life</text>
  
  <rect x="700" y="285" width="400" height="70" rx="8" fill="rgba(34,197,94,0.2)"/>
  <circle cx="740" cy="320" r="20" fill="#22c55e"/>
  <text x="740" y="327" font-family="system-ui, sans-serif" font-size="18" fill="white" text-anchor="middle"><à</text>
  <text x="780" y="313" font-family="system-ui, sans-serif" font-size="16" font-weight="bold" fill="white" text-anchor="start">Protection & Cleanliness</text>
  <text x="780" y="335" font-family="system-ui, sans-serif" font-size="14" fill="#94a3b8" text-anchor="start">Daily cleanup, protect existing finishes</text>
  
  <rect x="700" y="370" width="400" height="70" rx="8" fill="rgba(139,92,246,0.2)"/>
  <circle cx="740" cy="405" r="20" fill="#8b5cf6"/>
  <text x="740" y="412" font-family="system-ui, sans-serif" font-size="18" fill="white" text-anchor="middle"><¨</text>
  <text x="780" y="398" font-family="system-ui, sans-serif" font-size="16" font-weight="bold" fill="white" text-anchor="start">Design Help</text>
  <text x="780" y="420" font-family="system-ui, sans-serif" font-size="14" fill="#94a3b8" text-anchor="start">Material selection, layout advice</text>
  
  <rect x="700" y="455" width="400" height="70" rx="8" fill="rgba(59,130,246,0.2)"/>
  <circle cx="740" cy="490" r="20" fill="#3b82f6"/>
  <text x="740" y="497" font-family="system-ui, sans-serif" font-size="18" fill="white" text-anchor="middle">=á</text>
  <text x="780" y="483" font-family="system-ui, sans-serif" font-size="16" font-weight="bold" fill="white" text-anchor="start">Strong Warranty</text>
  <text x="780" y="505" font-family="system-ui, sans-serif" font-size="14" fill="#94a3b8" text-anchor="start">Peace of mind, stand behind your work</text>
  
  <rect x="700" y="540" width="400" height="70" rx="8" fill="rgba(236,72,153,0.2)"/>
  <circle cx="740" cy="575" r="20" fill="#ec4899"/>
  <text x="740" y="582" font-family="system-ui, sans-serif" font-size="18" fill="white" text-anchor="middle">(</text>
  <text x="780" y="568" font-family="system-ui, sans-serif" font-size="16" font-weight="bold" fill="white" text-anchor="start">Premium Finish Quality</text>
  <text x="780" y="590" font-family="system-ui, sans-serif" font-size="14" fill="#94a3b8" text-anchor="start">Attention to detail, high-end materials</text>
  
  <!-- Bottom insight -->
  <rect x="100" y="680" width="1000" height="50" rx="8" fill="rgba(34,197,94,0.2)"/>
  <text x="600" y="712" font-family="system-ui, sans-serif" font-size="16" fill="#86efac" text-anchor="middle">=° These differentiators let you charge 20-40% more than "lowest bidder" competitors</text>
</svg>
